<svg width="375" height="81" viewBox="0 0 375 81" fill="none" xmlns="http://www.w3.org/2000/svg">
<g filter="url(#filter0_d_0_281)">
<path d="M0 33C0 21.9543 8.95431 13 20 13H355C366.046 13 375 21.9543 375 33V81H0V33Z" fill="white"/>
<path d="M0.75 33C0.75 22.3685 9.36852 13.75 20 13.75H355C365.631 13.75 374.25 22.3685 374.25 33V80.25H0.75V33Z" stroke="#ECEEEF" stroke-width="1.5"/>
</g>
<g clip-path="url(#clip0_0_281)">
<path d="M66.1572 66H64.2236L62.002 62.8555L61.2842 63.5928V66H59.8047V58.8027H61.2842V61.7666L64.0625 58.8027H66.0059L63.0566 61.7666L66.1572 66ZM72.5166 62.8555H69.0205V64.7061H73.0049V66H67.5508V58.8027H72.8291V60.0771H69.0205V61.6055H72.5166V62.8555ZM77.1182 61.6055L78.3584 61.9033C78.902 62.0335 79.3122 62.2077 79.5889 62.4258C80.0186 62.7643 80.2334 63.2542 80.2334 63.8955C80.2334 64.5531 79.9811 65.0999 79.4766 65.5361C78.9753 65.9691 78.2738 66.1855 77.3721 66.1855L77.0693 66.6396C77.1768 66.6169 77.2533 66.6006 77.2988 66.5908C77.3444 66.5843 77.3932 66.5811 77.4453 66.5811C77.709 66.5811 77.9189 66.6445 78.0752 66.7715C78.2314 66.9017 78.3096 67.0872 78.3096 67.3281C78.3096 67.6276 78.1875 67.8636 77.9434 68.0361C77.6992 68.2119 77.3851 68.2998 77.001 68.2998C76.835 68.2998 76.6348 68.2656 76.4004 68.1973C76.293 68.1647 76.1416 68.1126 75.9463 68.041L76.1318 67.6211C76.3174 67.6764 76.4443 67.7122 76.5127 67.7285C76.6689 67.7676 76.7959 67.7871 76.8936 67.7871C77.0889 67.7871 77.2288 67.7448 77.3135 67.6602C77.3981 67.5788 77.4404 67.4925 77.4404 67.4014C77.4404 67.2646 77.3932 67.1686 77.2988 67.1133C77.2044 67.0579 77.1035 67.0303 76.9961 67.0303C76.9342 67.0303 76.8708 67.0368 76.8057 67.0498C76.7406 67.0661 76.6673 67.0872 76.5859 67.1133L76.376 66.918L76.8594 66.1855C76.2474 66.1855 75.6729 65.9723 75.1357 65.5459C74.5986 65.1162 74.3301 64.527 74.3301 63.7783H75.7656C75.8112 64.1071 75.9007 64.3529 76.0342 64.5156C76.2783 64.8118 76.6966 64.96 77.2891 64.96C77.6439 64.96 77.932 64.9209 78.1533 64.8428C78.5732 64.693 78.7832 64.4147 78.7832 64.0078C78.7832 63.7702 78.679 63.5879 78.4707 63.4609C78.2624 63.3307 77.9352 63.2168 77.4893 63.1191L76.7275 62.9482C75.9788 62.779 75.4613 62.5951 75.1748 62.3965C74.6898 62.0645 74.4473 61.5452 74.4473 60.8389C74.4473 60.1943 74.6816 59.6589 75.1504 59.2324C75.6191 58.806 76.3076 58.5928 77.2158 58.5928C77.9743 58.5928 78.6204 58.7946 79.1543 59.1982C79.6914 59.5986 79.973 60.1813 79.999 60.9463H78.5537C78.5277 60.5133 78.3389 60.2057 77.9873 60.0234C77.7529 59.903 77.4616 59.8428 77.1133 59.8428C76.7259 59.8428 76.4167 59.9209 76.1855 60.0771C75.9544 60.2334 75.8389 60.4515 75.8389 60.7314C75.8389 60.9886 75.9528 61.1807 76.1807 61.3076C76.3271 61.3923 76.6396 61.4915 77.1182 61.6055ZM86.9492 60.0771H83.3408V61.7324H86.5V62.9824H83.3408V66H81.8467V58.8125H86.9492V60.0771ZM93.4697 62.8555H89.9736V64.7061H93.958V66H88.5039V58.8027H93.7822V60.0771H89.9736V61.6055H93.4697V62.8555ZM100.859 58.8027V60.0771H98.7061V66H97.1924V60.0771H95.0293V58.8027H100.859Z" fill="#1D1E1C"/>
<path fill-rule="evenodd" clip-rule="evenodd" d="M67.1354 38C67.1354 30.9045 72.9045 25.1354 80 25.1354C87.0956 25.1354 92.8646 30.9045 92.8646 38C92.8646 45.0956 87.0956 50.8646 80 50.8646C72.9045 50.8646 67.1354 45.0956 67.1354 38ZM83.5209 40.2745L86.6078 33.1789L86.608 33.1788C87.0957 32.0415 85.9584 30.9042 84.8211 31.392L77.7256 34.4789C77.1839 34.7233 76.7226 35.156 76.4793 35.7252L73.4186 42.8473C72.9045 43.9581 74.0682 45.0954 75.179 44.6077L82.2746 41.5207C82.8163 41.2763 83.2775 40.8437 83.5209 40.2745ZM80 39.7604C80.9723 39.7604 81.7604 38.9723 81.7604 38C81.7604 37.0278 80.9723 36.2396 80 36.2396C79.0278 36.2396 78.2396 37.0278 78.2396 38C78.2396 38.9723 79.0278 39.7604 80 39.7604Z" fill="#1D1E1C"/>
</g>
<g opacity="0.3" clip-path="url(#clip1_0_281)">
<path d="M254.58 66H251.479V58.8027H254.58C255.026 58.8092 255.397 58.8613 255.693 58.959C256.198 59.125 256.606 59.4294 256.919 59.8721C257.17 60.2301 257.34 60.6175 257.432 61.0342C257.523 61.4508 257.568 61.848 257.568 62.2256C257.568 63.1826 257.376 63.9932 256.992 64.6572C256.471 65.5524 255.667 66 254.58 66ZM255.698 60.6387C255.467 60.248 255.01 60.0527 254.326 60.0527H252.939V64.75H254.326C255.036 64.75 255.531 64.4001 255.811 63.7002C255.964 63.3161 256.04 62.8587 256.04 62.3281C256.04 61.5957 255.926 61.0326 255.698 60.6387ZM263.42 64.5205H260.769L260.271 66H258.698L261.267 58.8027H262.966L265.515 66H263.884L263.42 64.5205ZM263 63.2803L262.102 60.4482L261.174 63.2803H263ZM271.225 66V62.7871H268.412V66H266.923V58.8027H268.412V61.5469H271.225V58.8027H272.719V66H271.225ZM278.873 64.5205H276.222L275.724 66H274.151L276.72 58.8027H278.419L280.968 66H279.337L278.873 64.5205ZM278.453 63.2803L277.555 60.4482L276.627 63.2803H278.453ZM290.376 65.4629C289.839 65.9544 289.152 66.2002 288.315 66.2002C287.28 66.2002 286.466 65.8682 285.874 65.2041C285.282 64.5368 284.985 63.6221 284.985 62.46C284.985 61.2035 285.322 60.235 285.996 59.5547C286.582 58.9622 287.327 58.666 288.232 58.666C289.443 58.666 290.329 59.0632 290.889 59.8574C291.198 60.3034 291.364 60.751 291.387 61.2002H289.883C289.785 60.8551 289.66 60.5947 289.507 60.4189C289.233 60.1064 288.828 59.9502 288.291 59.9502C287.744 59.9502 287.313 60.1715 286.997 60.6143C286.681 61.0537 286.523 61.6771 286.523 62.4844C286.523 63.2917 286.689 63.8971 287.021 64.3008C287.357 64.7012 287.782 64.9014 288.296 64.9014C288.823 64.9014 289.225 64.7288 289.502 64.3838C289.655 64.1982 289.782 63.9199 289.883 63.5488H291.372C291.242 64.3333 290.91 64.9714 290.376 65.4629ZM297.282 63.2266V58.8027H298.811V63.2266C298.811 63.9915 298.692 64.5872 298.454 65.0137C298.011 65.7949 297.167 66.1855 295.92 66.1855C294.673 66.1855 293.827 65.7949 293.381 65.0137C293.143 64.5872 293.024 63.9915 293.024 63.2266V58.8027H294.553V63.2266C294.553 63.7214 294.611 64.0827 294.729 64.3105C294.911 64.7142 295.308 64.916 295.92 64.916C296.529 64.916 296.924 64.7142 297.106 64.3105C297.224 64.0827 297.282 63.7214 297.282 63.2266ZM296.257 56.9766H297.531V58.1338H296.257V56.9766ZM294.304 56.9766H295.578V58.1338H294.304V56.9766ZM305.844 66H300.243V64.7305L303.959 60.0771H300.336V58.8027H305.834V60.0088L302.069 64.7305H305.844V66ZM310.465 66H307.364V58.8027H310.465C310.911 58.8092 311.282 58.8613 311.578 58.959C312.083 59.125 312.491 59.4294 312.804 59.8721C313.054 60.2301 313.225 60.6175 313.316 61.0342C313.408 61.4508 313.453 61.848 313.453 62.2256C313.453 63.1826 313.261 63.9932 312.877 64.6572C312.356 65.5524 311.552 66 310.465 66ZM311.583 60.6387C311.352 60.248 310.895 60.0527 310.211 60.0527H308.824V64.75H310.211C310.921 64.75 311.415 64.4001 311.695 63.7002C311.848 63.3161 311.925 62.8587 311.925 62.3281C311.925 61.5957 311.811 61.0326 311.583 60.6387ZM319.305 64.5205H316.653L316.155 66H314.583L317.151 58.8027H318.851L321.399 66H319.769L319.305 64.5205ZM318.885 63.2803L317.986 60.4482L317.059 63.2803H318.885ZM328.638 66H327.134L324.194 60.8877V66H322.793V58.8027H324.37L327.236 63.8271V58.8027H328.638V66Z" fill="#1D1E1C"/>
<path d="M278.491 35.8105C277.523 35.0009 278.083 33.4554 279.331 33.3826L285.493 32.9658C285.849 32.9409 286.181 32.7205 286.334 32.3775L288.676 26.8585C288.931 26.2941 289.466 26 290 26C290.535 26 291.069 26.2941 291.324 26.8585L293.667 32.3775C293.794 32.6965 294.125 32.9169 294.507 32.9658L300.669 33.3826C301.916 33.4563 302.477 35.0018 301.51 35.8105L296.671 39.6125C296.391 39.8328 296.264 40.2008 296.34 40.5687L297.791 46.3079C297.995 47.2402 297.282 48 296.442 48C296.187 48 295.932 47.9262 295.704 47.7796L290.433 44.6647C290.127 44.4683 289.72 44.4683 289.414 44.6647L284.194 47.7796C283.965 47.9272 283.685 48 283.43 48C282.59 48 281.826 47.2392 282.08 46.3079L283.532 40.5687C283.608 40.2257 283.506 39.8577 283.2 39.6364L278.491 35.8105Z" fill="#1D1E1C"/>
</g>
<g filter="url(#filter1_d_0_281)">
<rect x="153" y="2" width="69" height="69" rx="24" fill="white"/>
</g>
<path d="M211.066 6C212.727 7.04141 214.216 8.27605 215.521 9.69167C216.79 11.0678 217.885 12.615 218.794 14.322L219.031 14.776C220.97 18.572 222 22.7418 222 31.6317V41.6031L221.995 42.6475C221.913 51.1667 220.806 55.1397 218.794 58.9128C217.056 62.1748 214.641 64.8532 211.629 66.8697" stroke="#F1DE02" stroke-width="2" stroke-linecap="round" stroke-linejoin="round"/>
<path d="M218 12.9175C216.962 11.2567 215.731 9.76756 214.32 8.46241C212.949 7.19365 211.407 6.09872 209.705 5.18881L209.253 4.95181C205.469 3.01309 201.313 1.98322 192.453 1.98322H182.514L181.473 1.98815C172.982 2.07035 169.022 3.17757 165.261 5.18881C162.01 6.9276 159.34 9.34208 157.33 12.354" stroke="#009639" stroke-width="2" stroke-linecap="round" stroke-linejoin="round"/>
<path d="M159.479 9.66272C158.21 11.0344 157.116 12.5765 156.206 14.2778L155.969 14.7304C154.03 18.5139 153 22.67 153 31.5307V41.4693L153.005 42.5103C153.087 51.0015 154.194 54.9615 156.206 58.7221C157.944 61.9734 160.759 64.643 163.771 66.6529" stroke="#F40000" stroke-width="2" stroke-linecap="round" stroke-linejoin="round"/>
<path d="M160.993 64.504C162.365 65.7728 163.907 66.8677 165.608 67.7776L166.061 68.0146C169.844 69.9533 174 70.9832 182.861 70.9832H192.8L193.841 70.9783C202.332 70.8961 206.292 69.7888 210.052 67.7776C210.631 67.468 211.192 67.137 211.733 66.785C214.233 65.1601 216.131 63.088 217.783 60.6124" stroke="#FF8300" stroke-width="2" stroke-linecap="round" stroke-linejoin="round"/>
<path d="M218.794 58.939C217.056 62.1902 214.641 64.8599 211.629 66.8697" stroke="#FFCF08" stroke-width="2" stroke-linecap="round" stroke-linejoin="round"/>
<mask id="mask0_0_281" style="mask-type:luminance" maskUnits="userSpaceOnUse" x="180" y="40" width="15" height="16">
<path fill-rule="evenodd" clip-rule="evenodd" d="M180.009 40.9896H194.808V55.7887H180.009V40.9896Z" fill="white"/>
</mask>
<g mask="url(#mask0_0_281)">
<path fill-rule="evenodd" clip-rule="evenodd" d="M187.408 52.9981C190.136 52.9981 192.017 51.2221 192.017 48.6641V43.7803H182.799V48.6641C182.799 51.2221 184.681 52.9981 187.408 52.9981ZM187.408 55.7888C183.243 55.7888 180.009 52.7444 180.009 48.6641V40.9896H194.808V48.6641C194.808 52.7444 191.573 55.7888 187.408 55.7888Z" fill="#1D1D1B"/>
</g>
<mask id="mask1_0_281" style="mask-type:luminance" maskUnits="userSpaceOnUse" x="180" y="17" width="15" height="15">
<path fill-rule="evenodd" clip-rule="evenodd" d="M180.008 17.0997H194.808V31.7718H180.008V17.0997Z" fill="white"/>
</mask>
<g mask="url(#mask1_0_281)">
<path fill-rule="evenodd" clip-rule="evenodd" d="M187.408 19.8904C184.681 19.8904 182.799 21.6663 182.799 24.2243V28.9811H192.017V24.2243C192.017 21.6663 190.135 19.8904 187.408 19.8904ZM187.408 17.0997C191.573 17.0997 194.808 20.1441 194.808 24.2243V31.7718H180.008V24.2243C180.008 20.1441 183.243 17.0997 187.408 17.0997Z" fill="#1D1D1B"/>
</g>
<mask id="mask2_0_281" style="mask-type:luminance" maskUnits="userSpaceOnUse" x="168" y="28" width="15" height="16">
<path fill-rule="evenodd" clip-rule="evenodd" d="M168 28.9811H182.799V43.7803H168V28.9811Z" fill="white"/>
</mask>
<g mask="url(#mask2_0_281)">
<path fill-rule="evenodd" clip-rule="evenodd" d="M170.791 36.3809C170.791 39.108 172.567 40.9896 175.125 40.9896H180.008V31.7718H175.125C172.567 31.7718 170.791 33.6533 170.791 36.3809ZM168 36.3809C168 32.2156 171.044 28.9811 175.125 28.9811H182.799V43.7803H175.125C171.044 43.7803 168 40.5457 168 36.3809Z" fill="#1D1D1B"/>
</g>
<mask id="mask3_0_281" style="mask-type:luminance" maskUnits="userSpaceOnUse" x="192" y="28" width="15" height="16">
<path fill-rule="evenodd" clip-rule="evenodd" d="M192.017 28.9811H206.816V43.7802H192.017V28.9811Z" fill="white"/>
</mask>
<g mask="url(#mask3_0_281)">
<path fill-rule="evenodd" clip-rule="evenodd" d="M204.026 36.3804C204.026 33.6532 202.25 31.7718 199.692 31.7718H194.808V40.9896H199.692C202.25 40.9896 204.026 39.108 204.026 36.3804ZM206.816 36.3804C206.816 40.5456 203.772 43.7802 199.692 43.7802H192.017V28.9811H199.692C203.772 28.9811 206.816 32.2156 206.816 36.3804Z" fill="#1D1D1B"/>
</g>
<path fill-rule="evenodd" clip-rule="evenodd" d="M204.026 36.3805C204.026 33.6533 202.249 31.7719 199.691 31.7719H194.808V40.9896H199.691C202.249 40.9896 204.026 39.1081 204.026 36.3805Z" fill="#F1DE02"/>
<path fill-rule="evenodd" clip-rule="evenodd" d="M187.408 19.8904C184.681 19.8904 182.799 21.6664 182.799 24.2244V28.9812H192.017V24.2244C192.017 21.6664 190.135 19.8904 187.408 19.8904Z" fill="#009639"/>
<path fill-rule="evenodd" clip-rule="evenodd" d="M187.408 52.9981C190.136 52.9981 192.017 51.2222 192.017 48.6642V43.7803H182.799V48.6642C182.799 51.2222 184.681 52.9981 187.408 52.9981Z" fill="#FF8300"/>
<path fill-rule="evenodd" clip-rule="evenodd" d="M170.791 36.381C170.791 39.1081 172.567 40.9896 175.125 40.9896H180.008V31.7719H175.125C172.567 31.7719 170.791 33.6534 170.791 36.381Z" fill="#F40000"/>
<defs>
<filter id="filter0_d_0_281" x="-8" y="5" width="391" height="84" filterUnits="userSpaceOnUse" color-interpolation-filters="sRGB">
<feFlood flood-opacity="0" result="BackgroundImageFix"/>
<feColorMatrix in="SourceAlpha" type="matrix" values="0 0 0 0 0 0 0 0 0 0 0 0 0 0 0 0 0 0 127 0" result="hardAlpha"/>
<feMorphology radius="2" operator="dilate" in="SourceAlpha" result="effect1_dropShadow_0_281"/>
<feOffset/>
<feGaussianBlur stdDeviation="3"/>
<feColorMatrix type="matrix" values="0 0 0 0 0 0 0 0 0 0 0 0 0 0 0 0 0 0 0.05 0"/>
<feBlend mode="normal" in2="BackgroundImageFix" result="effect1_dropShadow_0_281"/>
<feBlend mode="normal" in="SourceGraphic" in2="effect1_dropShadow_0_281" result="shape"/>
</filter>
<filter id="filter1_d_0_281" x="151" y="2" width="73" height="75" filterUnits="userSpaceOnUse" color-interpolation-filters="sRGB">
<feFlood flood-opacity="0" result="BackgroundImageFix"/>
<feColorMatrix in="SourceAlpha" type="matrix" values="0 0 0 0 0 0 0 0 0 0 0 0 0 0 0 0 0 0 127 0" result="hardAlpha"/>
<feMorphology radius="2" operator="dilate" in="SourceAlpha" result="effect1_dropShadow_0_281"/>
<feOffset dy="4"/>
<feColorMatrix type="matrix" values="0 0 0 0 0.845109 0 0 0 0 0.845109 0 0 0 0 0.845109 0 0 0 0.5 0"/>
<feBlend mode="normal" in2="BackgroundImageFix" result="effect1_dropShadow_0_281"/>
<feBlend mode="normal" in="SourceGraphic" in2="effect1_dropShadow_0_281" result="shape"/>
</filter>
<clipPath id="clip0_0_281">
<rect width="110" height="46" fill="white" transform="translate(25 25)"/>
</clipPath>
<clipPath id="clip1_0_281">
<rect width="110" height="45" fill="white" transform="translate(235 26)"/>
</clipPath>
</defs>
</svg>
