<svg width="24" height="24" viewBox="0 0 24 24" fill="none" xmlns="http://www.w3.org/2000/svg">
<g clip-path="url(#clip0_0_118)">
<rect width="24" height="24" rx="7.2" fill="#009239"/>
<mask id="mask0_0_118" style="mask-type:luminance" maskUnits="userSpaceOnUse" x="0" y="0" width="24" height="24">
<rect width="24" height="24" rx="7.2" fill="white"/>
</mask>
<g mask="url(#mask0_0_118)">
<path fill-rule="evenodd" clip-rule="evenodd" d="M12.2692 11.6328C12.2692 11.2949 12.4112 10.8726 13.0819 10.716V9.60568C12.5261 9.66992 12.0917 10.2634 11.9655 10.9191V10.2071L11.1526 10.6451V14.4317L12.2692 13.83V11.6328Z" fill="white"/>
<path fill-rule="evenodd" clip-rule="evenodd" d="M14.3153 8.94104V12.7276L13.2131 13.3214V9.53498L14.3153 8.94104Z" fill="white"/>
<path fill-rule="evenodd" clip-rule="evenodd" d="M14.8853 12.4205V9.2835L14.4386 9.52417V8.87475C15.0177 8.36527 15.3362 7.75339 15.394 7.03911L15.9933 6.71628V8.0368L16.5257 7.75005V8.39968L15.9933 8.68643V11.8234L14.8853 12.4205Z" fill="white"/>
<path fill-rule="evenodd" clip-rule="evenodd" d="M9.1767 16.9808V12.3592C9.67804 12.0891 9.84989 12.2964 9.93644 12.6109C10.023 12.9254 10.024 13.3468 9.95291 13.7454C9.88159 14.1439 9.73748 14.5195 9.61089 14.7883C9.48389 15.0571 9.37398 15.219 9.31267 15.3101C9.25156 15.4015 9.23926 15.4221 9.23613 15.4379C9.233 15.454 9.23947 15.4653 9.25428 15.4684C9.26929 15.4715 9.29307 15.4667 9.52059 15.3189C9.74833 15.171 10.18 14.8799 10.4939 14.4061C10.808 13.9322 11.0042 13.2757 11.0334 12.7548C11.0626 12.2338 10.925 11.8484 10.7166 11.6274C10.5085 11.4063 10.2297 11.3494 10.0082 11.3652C9.78691 11.3809 9.62278 11.4695 8.77712 11.925L8.07056 12.3056V17.5766L9.1767 16.9808Z" fill="white"/>
<path fill-rule="evenodd" clip-rule="evenodd" d="M19.3792 8.89824L19.2123 8.76289C19.0642 9.2071 18.8326 9.56121 18.6161 9.77143C18.3996 9.98144 18.1986 10.0473 18.0286 10.0115C17.8588 9.9756 17.7202 9.83816 17.6565 9.58603C17.5934 9.3341 17.6046 8.96748 17.6334 8.63943C17.6624 8.31138 17.7083 8.02192 17.7804 7.7896C17.8528 7.55727 17.951 7.38168 18.0413 7.30576C18.1318 7.22964 18.214 7.25279 18.2595 7.33121C18.3051 7.40941 18.3143 7.54288 18.296 7.72745C18.2776 7.91181 18.2319 8.14767 18.156 8.36144C18.0801 8.5752 17.974 8.76685 17.8966 8.89031C17.8194 9.01377 17.771 9.06883 17.7316 9.11242C17.6918 9.156 17.6611 9.18791 17.6528 9.21356C17.6445 9.23901 17.6588 9.25819 17.6876 9.25611C17.7164 9.25444 17.7598 9.23171 17.9612 9.09969C18.1631 8.96748 18.5231 8.72577 18.7717 8.38688C19.0202 8.0482 19.1577 7.61212 19.1181 7.27073C19.0784 6.92934 18.862 6.68241 18.5174 6.68679C18.1731 6.69117 17.7006 6.94665 17.3408 7.30034C16.9809 7.65425 16.7335 8.10638 16.5877 8.56352C16.4418 9.02066 16.3975 9.48259 16.4353 9.87028C16.473 10.2578 16.5932 10.5712 16.8119 10.7627C17.0311 10.9545 17.3494 11.0248 17.6638 10.9631C17.9788 10.9013 18.2903 10.7076 18.5871 10.4188C18.8836 10.1295 19.1654 9.74515 19.3792 8.89824Z" fill="white"/>
<path fill-rule="evenodd" clip-rule="evenodd" d="M8.08719 11.8617L8.1214 10.6148C7.08074 10.5072 6.21756 10.9216 5.70933 11.4194C5.20089 11.9174 5.04719 12.4989 5.05428 12.9575C5.06116 13.4163 5.22904 13.7518 5.47575 13.961C5.72226 14.1702 6.04822 14.2525 6.30598 14.4213C6.56375 14.59 6.75374 14.845 6.74602 15.1595C6.7383 15.474 6.53288 15.8477 6.15687 16.0577C5.78086 16.2677 5.23467 16.314 4.78442 15.9987L4.60486 17.5831C5.87533 17.6177 6.79816 17.0081 7.33329 16.3134C7.86843 15.6189 8.01566 14.8394 7.93662 14.2836C7.85737 13.7276 7.55206 13.3952 7.27344 13.1856C6.99461 12.9762 6.74289 12.8895 6.53351 12.6891C6.32434 12.4886 6.1575 12.1746 6.40671 11.868C6.65614 11.5614 7.32161 11.2626 8.08719 11.8617Z" fill="white"/>
<path fill-rule="evenodd" clip-rule="evenodd" d="M12.8048 7.61307C12.8048 7.08044 13.2363 6.64874 13.7691 6.64874C14.3018 6.64874 14.7335 7.08044 14.7335 7.61307C14.7335 8.1457 14.3018 8.5776 13.7691 8.5776C13.2363 8.5776 12.8048 8.1457 12.8048 7.61307Z" fill="#F8CF00"/>
<path fill-rule="evenodd" clip-rule="evenodd" d="M19.5624 10.4166L19.6227 10.5089L19.7027 10.481L19.6233 10.3809C19.6604 10.3465 19.681 10.3167 19.6838 10.276C19.6888 10.2184 19.6504 10.1765 19.5559 10.2109C19.5184 10.2241 19.4879 10.2368 19.4608 10.2495L19.4323 10.5765L19.5017 10.5511L19.5119 10.4337C19.5168 10.432 19.5219 10.4307 19.5271 10.4294C19.5333 10.4278 19.5396 10.4262 19.5455 10.4241C19.5467 10.4235 19.5489 10.4226 19.5513 10.4216C19.5554 10.4199 19.5603 10.418 19.5624 10.4166ZM19.555 10.267C19.5574 10.2662 19.5598 10.2654 19.5622 10.2645C19.597 10.2518 19.6214 10.2595 19.6187 10.2902C19.6156 10.3275 19.5874 10.3515 19.548 10.3657C19.5384 10.3692 19.5276 10.3717 19.5175 10.374L19.5251 10.2791C19.5347 10.2741 19.5449 10.2705 19.555 10.267Z" fill="white"/>
<path fill-rule="evenodd" clip-rule="evenodd" d="M19.2928 10.4295C19.3132 10.5755 19.4473 10.677 19.5937 10.6566C19.7393 10.6359 19.8413 10.501 19.8215 10.3546C19.8006 10.2088 19.6663 10.1073 19.5201 10.1281C19.3747 10.149 19.2724 10.2831 19.2928 10.4295ZM19.2486 10.4355C19.2256 10.266 19.3437 10.1081 19.5139 10.0845C19.6842 10.0606 19.8409 10.1786 19.8646 10.3484C19.889 10.519 19.7697 10.6762 19.5998 10.7004C19.4292 10.7244 19.2724 10.6061 19.2486 10.4355Z" fill="white"/>
</g>
</g>
<defs>
<clipPath id="clip0_0_118">
<rect width="24" height="24" fill="white"/>
</clipPath>
</defs>
</svg>
